<svg width="47" height="46" viewBox="0 0 47 46" fill="none" xmlns="http://www.w3.org/2000/svg">
<path d="M10.5801 22.1582L22.4453 10.293L18.4902 6.42578L13.1289 11.875C12.9531 11.9629 12.7773 12.0508 12.6016 12.0508C12.4258 12.0508 12.25 11.9629 12.1621 11.875L11.1074 10.8203C10.8438 10.5566 10.8438 10.1172 11.1074 9.85352L16.5566 4.4043L13.5684 1.50391C12.5137 0.361328 10.7559 0.361328 9.70117 1.50391L1.79102 9.32617C0.648438 10.4688 0.648438 12.2266 1.79102 13.2812L10.5801 22.1582ZM44.6816 11.875C46.3516 10.2051 46.3516 7.56836 44.6816 5.89844L40.7266 1.94336C39.0566 0.273438 36.4199 0.273438 34.75 1.94336L30.707 5.98633L40.6387 15.918L44.6816 11.875ZM28.7734 7.91992L2.66992 34.0234L1 43.5156C0.736328 44.7461 1.87891 45.8887 3.10938 45.625L12.6016 43.9551L38.7051 17.8516L28.7734 7.91992ZM45.1211 33.0566L42.2207 30.0684L36.7715 35.5176C36.5078 35.7812 36.0684 35.7812 35.8047 35.5176L34.75 34.4629C34.4863 34.1992 34.4863 33.7598 34.75 33.4961L40.1992 28.1348L36.332 24.1797L24.4668 36.0449L33.3438 44.834C34.3984 45.9766 36.1562 45.9766 37.2988 44.834L45.1211 36.9238C46.2637 35.8691 46.2637 34.1113 45.1211 33.0566Z" fill="white"/>
</svg>
